<?xml version="1.0" standalone="no"?>
<!DOCTYPE svg PUBLIC "-//W3C//DTD SVG 20010904//EN"
 "http://www.w3.org/TR/2001/REC-SVG-20010904/DTD/svg10.dtd">
<svg version="1.0" xmlns="http://www.w3.org/2000/svg"
 width="350.000000pt" height="350.000000pt" viewBox="0 0 350.000000 350.000000"
 preserveAspectRatio="xMidYMid meet">
<metadata>
Created by potrace 1.11, written by Peter Selinger 2001-2013
</metadata>
<g transform="translate(0.000000,350.000000) scale(0.100000,-0.100000)"
fill="#000000" stroke="none">
<path d="M1105 2274 c-5 -1 -27 -5 -48 -9 -45 -7 -103 -55 -122 -103 -38 -90
-5 -225 64 -266 73 -42 183 -35 238 15 55 51 78 151 53 241 -12 42 -76 105
-117 113 -49 11 -58 12 -68 9z m82 -113 c49 -72 19 -204 -49 -222 -76 -20
-128 36 -128 137 0 53 4 67 26 94 24 28 31 31 77 28 46 -3 54 -7 74 -37z"/>
<path d="M510 2071 l0 -201 98 0 c72 0 107 5 137 19 139 63 154 274 27 353
-32 20 -53 23 -149 27 l-113 3 0 -201z m219 105 c48 -43 51 -151 7 -203 -19
-22 -33 -27 -84 -31 l-62 -4 0 132 0 132 60 -4 c38 -3 66 -11 79 -22z"/>
<path d="M1380 2070 l0 -200 41 0 42 0 -5 168 -6 167 25 -90 c13 -49 33 -125
44 -167 l21 -78 39 0 c21 0 39 3 39 8 1 4 21 75 45 157 l44 150 1 -157 0 -158
45 0 45 0 0 200 0 200 -65 0 -64 0 -30 -97 c-16 -54 -35 -118 -42 -142 -15
-51 -10 -61 -60 122 l-31 117 -64 0 -64 0 0 -200z"/>
<path d="M1890 2070 l0 -200 45 0 45 0 0 200 0 200 -45 0 -45 0 0 -200z"/>
<path d="M2070 2070 l0 -200 40 0 40 0 0 153 c0 83 4 145 9 137 4 -8 41 -77
81 -152 l73 -138 53 0 54 0 0 200 0 200 -40 0 -39 0 -3 -140 -3 -139 -76 137
-77 137 -56 3 -56 3 0 -201z"/>
<path d="M2510 2070 l0 -200 45 0 45 0 0 200 0 200 -45 0 -45 0 0 -200z"/>
<path d="M2690 2070 l0 -200 45 0 45 0 0 68 c0 54 4 72 18 85 10 10 21 17 23
17 3 0 32 -38 64 -85 l58 -85 49 0 c26 0 48 2 48 5 0 2 -36 55 -80 117 l-81
112 83 83 83 83 -55 0 -55 -1 -75 -85 -75 -86 -3 86 -3 86 -44 0 -45 0 0 -200z"/>
<path d="M1778 1750 c-53 -9 -105 -48 -128 -96 -39 -80 -20 -216 38 -268 34
-30 110 -46 168 -35 52 10 106 53 119 97 6 20 3 22 -39 22 -35 0 -46 -4 -51
-19 -9 -30 -69 -46 -107 -30 -39 16 -58 61 -58 134 0 68 19 108 59 125 37 15
97 -2 106 -31 5 -15 16 -19 51 -19 48 0 52 6 30 49 -28 53 -109 84 -188 71z"/>
<path d="M510 1550 l0 -200 40 0 40 0 0 200 0 200 -40 0 -40 0 0 -200z"/>
<path d="M690 1550 l0 -200 139 0 139 0 4 35 4 35 -98 0 -98 0 0 165 0 165
-45 0 -45 0 0 -200z"/>
<path d="M1030 1551 l0 -201 35 0 35 0 0 153 0 152 83 -152 82 -153 53 0 52 0
0 200 0 200 -40 0 -40 0 0 -142 0 -143 -77 140 -78 140 -52 3 -53 3 0 -200z"/>
<path d="M1470 1550 l0 -200 40 0 40 0 0 200 0 200 -40 0 -40 0 0 -200z"/>
<path d="M2050 1550 l0 -200 45 0 45 0 0 68 c0 54 4 72 18 85 10 10 21 17 23
17 3 0 32 -38 64 -85 l58 -85 49 0 c26 0 48 2 48 5 0 2 -36 55 -80 117 l-81
112 83 83 83 83 -55 0 -55 -1 -75 -85 -75 -86 -3 86 -3 86 -44 0 -45 0 0 -200z"/>
<path d="M2450 1550 l0 -200 40 0 40 0 0 200 0 200 -40 0 -40 0 0 -200z"/>
</g>
</svg>
